<?xml version="1.0" encoding="UTF-8"?>
<svg id="Calque_1" data-name="Calque 1" xmlns="http://www.w3.org/2000/svg" viewBox="0 0 595.28 841.89">
  <defs>
    <style>
      .cls-1 {
        stroke-width: 0px;
      }
    </style>
  </defs>
  <path class="cls-1" d="m111.58,437.25c0-.47,0-41.63,0-42.1h-13.95v-14.38h44.88v14.38h-13.95v50.95h-16.98s0-8.82,0-8.84"/>
  <path class="cls-1" d="m161.28,382.13v25.14c.94-1.27,2.96-3.8,6.5-5.24,2.19-.89,4.77-1.34,7.71-1.34,5.6,0,9.83,1.55,12.69,4.64,2.86,3.09,4.29,7.26,4.29,12.52v28.25h-15.68v-22.44c0-2.25-.17-4.07-.52-5.46-.35-1.39-.92-2.46-1.73-3.21-1.39-1.21-3.06-1.82-5.02-1.82-2.66,0-4.69.79-6.11,2.38-1.42,1.59-2.12,3.86-2.12,6.8v23.74h-15.68v-71.91"/>
  <path class="cls-1" d="m279.9,446.09-16.98-10.92c0-18.14,0-36.27,0-54.41h37.43v14.38h-20.45v10.92h18.63v14.38h-18.63v23.21"/>
  <path class="cls-1" d="m303.56,421.83c0-3.29.66-6.37,1.99-9.23,1.33-2.86,3.18-5.34,5.54-7.45,2.37-2.11,5.18-3.77,8.45-4.98,3.26-1.21,6.83-1.82,10.7-1.82s7.35.59,10.61,1.78c3.26,1.18,6.09,2.83,8.49,4.94,2.4,2.11,4.26,4.62,5.59,7.54,1.33,2.92,1.99,6.14,1.99,9.66s-.68,6.74-2.04,9.66c-1.36,2.92-3.22,5.43-5.59,7.54-2.37,2.11-5.21,3.74-8.53,4.9-3.32,1.15-6.92,1.73-10.79,1.73s-7.34-.58-10.57-1.73c-3.24-1.16-6.02-2.8-8.36-4.94-2.34-2.14-4.17-4.69-5.5-7.67-1.33-2.98-1.99-6.28-1.99-9.92Zm16.55.17c0,1.5.27,2.87.82,4.12.55,1.24,1.27,2.32,2.17,3.25.89.92,1.96,1.65,3.21,2.17,1.24.52,2.55.78,3.94.78s2.7-.26,3.94-.78,2.31-1.24,3.21-2.17c.89-.92,1.62-2.01,2.17-3.25.55-1.24.82-2.58.82-4.03s-.27-2.7-.82-3.94c-.55-1.24-1.27-2.32-2.17-3.25-.9-.92-1.96-1.65-3.21-2.17s-2.56-.78-3.94-.78-2.7.26-3.94.78c-1.24.52-2.31,1.24-3.21,2.17-.9.92-1.62,1.99-2.17,3.21-.55,1.21-.82,2.51-.82,3.9Z"/>
  <path class="cls-1" d="m360.02,401.64h15.68v7.28c1.67-2.66,3.72-4.69,6.15-6.11,2.43-1.41,5.26-2.12,8.49-2.12h1.34c.49,0,1.05.06,1.69.17v14.99c-2.08-1.04-4.33-1.56-6.76-1.56-3.64,0-6.37,1.08-8.19,3.25s-2.73,5.33-2.73,9.49v19.06h-15.68v-44.45Z"/>
  <path class="cls-1" d="m448.03,400.91v41.41c.05,2.76-.19,5.04-.43,6.67-.29,1.96-.69,3.7-1.21,5.2-.69,1.91-1.78,3.68-3.25,5.33s-3.25,3.08-5.33,4.29c-2.08,1.21-4.43,2.17-7.06,2.86-2.63.69-5.47,1.04-8.53,1.04-3.47,0-6.64-.43-9.53-1.3-2.89-.87-5.42-2.07-7.58-3.6-2.17-1.53-3.94-3.32-5.33-5.37-1.39-2.05-2.31-4.29-2.77-6.71h17.67c1.1,2.95,3.58,4.42,7.45,4.42,3.29,0,5.82-.92,7.58-2.77,1.76-1.85,2.64-4.42,2.64-7.71v-4.24c-1.16,1.1-2.27,2.01-3.34,2.73-1.07.72-2.15,1.32-3.25,1.78-1.1.46-2.25.79-3.47,1s-2.54.3-3.98.3c-3.18,0-6.1-.55-8.75-1.65-2.66-1.1-4.95-2.63-6.89-4.59-1.94-1.96-3.44-4.32-4.51-7.06-1.07-2.74-1.6-5.79-1.6-9.14s.58-6.57,1.73-9.49c1.15-2.91,2.73-5.46,4.72-7.62,1.99-2.17,4.36-3.87,7.11-5.11,2.74-1.24,5.73-1.86,8.97-1.86,5.26,0,9.67,1.96,13.26,5.89v-4.68h15.68Zm-35.18,22.01c0,1.44.26,2.79.78,4.03.52,1.24,1.23,2.33,2.12,3.25.89.92,1.96,1.65,3.21,2.17,1.24.52,2.58.78,4.03.78s2.7-.26,3.94-.78c1.24-.52,2.31-1.24,3.21-2.17.89-.92,1.62-2.01,2.17-3.25.55-1.24.82-2.55.82-3.94s-.27-2.77-.82-3.98c-.55-1.21-1.29-2.28-2.21-3.21-.92-.92-2.01-1.65-3.25-2.17-1.24-.52-2.53-.78-3.86-.78s-2.69.27-3.9.82c-1.21.55-2.28,1.27-3.21,2.17-.92.9-1.66,1.95-2.21,3.16-.55,1.21-.82,2.51-.82,3.9Z"/>
  <path class="cls-1" d="m466.19,426.05c0,6.44,3.03,9.66,9.08,9.66,3.25,0,5.7-1.32,7.35-3.96h14.45c-2.92,9.69-10.21,14.53-21.88,14.53-3.58,0-6.85-.54-9.82-1.61-2.97-1.07-5.52-2.6-7.64-4.58-2.12-1.98-3.76-4.35-4.91-7.1-1.16-2.75-1.73-5.83-1.73-9.25s.55-6.7,1.65-9.53c1.1-2.84,2.67-5.24,4.71-7.22,2.04-1.98,4.5-3.51,7.39-4.58,2.89-1.07,6.15-1.61,9.78-1.61s6.8.54,9.66,1.61c2.86,1.07,5.28,2.63,7.27,4.66,1.98,2.04,3.49,4.53,4.54,7.47,1.04,2.94,1.57,6.26,1.57,9.95v1.57h-31.45Zm17.5-8.67c-.5-2.09-1.51-3.77-3.05-5.04-1.54-1.27-3.41-1.9-5.61-1.9-2.31,0-4.2.61-5.66,1.82-1.46,1.21-2.38,2.92-2.77,5.12h17.09Z"/>
  <path class="cls-1" d="m210.39,426.05c0,6.44,3.03,9.66,9.08,9.66,3.25,0,5.7-1.32,7.35-3.96h14.45c-2.92,9.69-10.21,14.53-21.88,14.53-3.58,0-6.85-.54-9.82-1.61-2.97-1.07-5.52-2.6-7.64-4.58-2.12-1.98-3.76-4.35-4.91-7.1-1.16-2.75-1.73-5.83-1.73-9.25s.55-6.7,1.65-9.53c1.1-2.84,2.67-5.24,4.71-7.22,2.04-1.98,4.5-3.51,7.39-4.58,2.89-1.07,6.15-1.61,9.78-1.61s6.8.54,9.66,1.61c2.86,1.07,5.28,2.63,7.27,4.66,1.98,2.04,3.49,4.53,4.54,7.47,1.04,2.94,1.57,6.26,1.57,9.95v1.57h-31.45Zm17.5-8.67c-.5-2.09-1.51-3.77-3.05-5.04-1.54-1.27-3.41-1.9-5.61-1.9-2.31,0-4.2.61-5.66,1.82-1.46,1.21-2.38,2.92-2.77,5.12h17.09Z"/>
</svg>