<?xml version="1.0" encoding="UTF-8"?>
<svg id="Calque_1" data-name="Calque 1" xmlns="http://www.w3.org/2000/svg" viewBox="0 0 595.28 841.89">
  <defs>
    <style>
      .cls-1, .cls-2, .cls-3, .cls-4, .cls-5, .cls-6, .cls-7, .cls-8 {
        stroke-width: 0px;
      }

      .cls-2 {
        fill: #833600;
      }

      .cls-3 {
        fill: #caffff;
      }

      .cls-4 {
        fill: #ffc98a;
      }

      .cls-5 {
        fill: #fff0d6;
      }

      .cls-6 {
        fill: #ecfe8c;
      }

      .cls-7 {
        fill: blue;
      }

      .cls-8 {
        fill: #015453;
      }
    </style>
  </defs>
  <rect class="cls-1" x="42.68" y="357.2" width="15.94" height="15.94"/>
  <rect class="cls-1" x="58.61" y="357.2" width="15.94" height="15.94"/>
  <rect class="cls-8" x="74.55" y="357.2" width="15.94" height="15.94"/>
  <rect class="cls-3" x="90.48" y="357.2" width="15.94" height="15.94"/>
  <rect class="cls-3" x="106.42" y="357.2" width="15.94" height="15.94"/>
  <rect class="cls-1" x="138.29" y="357.2" width="15.94" height="15.94"/>
  <rect class="cls-1" x="154.22" y="357.2" width="15.94" height="15.94"/>
  <rect class="cls-1" x="217.96" y="357.2" width="15.94" height="15.94"/>
  <rect class="cls-1" x="233.9" y="357.2" width="15.94" height="15.94"/>
  <rect class="cls-1" x="249.83" y="357.2" width="15.94" height="15.94"/>
  <rect class="cls-8" x="74.55" y="373.14" width="15.94" height="15.94"/>
  <rect class="cls-8" x="90.48" y="373.14" width="15.94" height="15.94"/>
  <rect class="cls-4" x="122.35" y="373.14" width="15.94" height="15.94"/>
  <rect class="cls-8" x="154.22" y="373.14" width="15.94" height="15.94"/>
  <rect class="cls-4" x="186.09" y="373.14" width="15.94" height="15.94"/>
  <rect class="cls-4" x="202.03" y="373.14" width="15.94" height="15.94"/>
  <rect class="cls-1" x="217.96" y="373.14" width="15.94" height="15.94"/>
  <rect class="cls-2" x="281.7" y="373.14" width="15.94" height="15.94"/>
  <rect class="cls-6" x="42.68" y="389.07" width="15.94" height="15.94"/>
  <rect class="cls-1" x="74.55" y="389.07" width="15.94" height="15.94"/>
  <rect class="cls-7" x="90.48" y="389.07" width="15.94" height="15.94"/>
  <rect class="cls-4" x="106.42" y="389.07" width="15.94" height="15.94"/>
  <rect class="cls-4" x="122.35" y="389.07" width="15.94" height="15.94"/>
  <rect class="cls-1" x="170.16" y="389.07" width="15.94" height="15.94"/>
  <rect class="cls-1" x="249.83" y="389.07" width="15.94" height="15.94"/>
  <rect class="cls-8" x="265.77" y="389.07" width="15.94" height="15.94"/>
  <rect class="cls-8" x="281.7" y="389.07" width="15.94" height="15.94"/>
  <rect class="cls-6" x="42.68" y="405.01" width="15.94" height="15.94"/>
  <rect class="cls-1" x="58.61" y="405.01" width="15.94" height="15.94"/>
  <rect class="cls-7" x="74.55" y="405.01" width="15.94" height="15.94"/>
  <rect class="cls-1" x="90.48" y="405.01" width="15.94" height="15.94"/>
  <rect class="cls-4" x="106.42" y="405.01" width="15.94" height="15.94"/>
  <rect class="cls-2" x="154.22" y="405.01" width="15.94" height="15.94"/>
  <rect class="cls-2" x="170.16" y="405.01" width="15.94" height="15.94"/>
  <rect class="cls-1" x="186.09" y="405.01" width="15.94" height="15.94"/>
  <rect class="cls-1" x="217.96" y="405.01" width="15.94" height="15.94"/>
  <rect class="cls-1" x="249.83" y="405.01" width="15.94" height="15.94"/>
  <rect class="cls-8" x="265.77" y="405.01" width="15.94" height="15.94"/>
  <rect class="cls-7" x="74.55" y="420.94" width="15.94" height="15.94"/>
  <rect class="cls-1" x="90.48" y="420.94" width="15.94" height="15.94"/>
  <rect class="cls-1" x="106.42" y="420.94" width="15.94" height="15.94"/>
  <rect class="cls-1" x="122.35" y="420.94" width="15.94" height="15.94"/>
  <rect class="cls-1" x="138.29" y="420.94" width="15.94" height="15.94"/>
  <rect class="cls-3" x="154.22" y="420.94" width="15.94" height="15.94"/>
  <rect class="cls-1" x="170.16" y="420.94" width="15.94" height="15.94"/>
  <rect class="cls-1" x="186.09" y="420.94" width="15.94" height="15.94"/>
  <rect class="cls-2" x="249.83" y="420.94" width="15.94" height="15.94"/>
  <rect class="cls-2" x="265.77" y="420.94" width="15.94" height="15.94"/>
  <rect class="cls-1" x="281.7" y="420.94" width="15.94" height="15.94"/>
  <rect class="cls-7" x="74.55" y="436.88" width="15.94" height="15.94"/>
  <rect class="cls-6" x="122.35" y="436.88" width="15.94" height="15.94"/>
  <rect class="cls-6" x="138.29" y="436.88" width="15.94" height="15.94"/>
  <rect class="cls-6" x="154.22" y="436.88" width="15.94" height="15.94"/>
  <rect class="cls-6" x="170.16" y="436.88" width="15.94" height="15.94"/>
  <rect class="cls-1" x="217.96" y="436.88" width="15.94" height="15.94"/>
  <rect class="cls-1" x="233.9" y="436.88" width="15.94" height="15.94"/>
  <rect class="cls-1" x="249.83" y="436.88" width="15.94" height="15.94"/>
  <rect class="cls-1" x="281.7" y="436.88" width="15.94" height="15.94"/>
  <rect class="cls-1" x="42.68" y="452.82" width="15.94" height="15.94"/>
  <rect class="cls-8" x="122.35" y="452.82" width="15.94" height="15.94"/>
  <rect class="cls-8" x="202.03" y="452.82" width="15.94" height="15.94"/>
  <rect class="cls-8" x="217.96" y="452.82" width="15.94" height="15.94"/>
  <rect class="cls-7" x="233.9" y="452.82" width="15.94" height="15.94"/>
  <rect class="cls-7" x="249.83" y="452.82" width="15.94" height="15.94"/>
  <rect class="cls-1" x="42.68" y="468.75" width="15.94" height="15.94"/>
  <rect class="cls-7" x="74.55" y="468.75" width="15.94" height="15.94"/>
  <rect class="cls-7" x="90.48" y="468.75" width="15.94" height="15.94"/>
  <rect class="cls-7" x="106.42" y="468.75" width="15.94" height="15.94"/>
  <rect class="cls-8" x="122.35" y="468.75" width="15.94" height="15.94"/>
  <rect class="cls-2" x="154.22" y="468.75" width="15.94" height="15.94"/>
  <rect class="cls-1" x="186.09" y="468.75" width="15.94" height="15.94"/>
  <rect class="cls-1" x="202.03" y="468.75" width="15.94" height="15.94"/>
  <rect class="cls-4" x="217.96" y="468.75" width="15.94" height="15.94"/>
  <rect class="cls-4" x="233.9" y="468.75" width="15.94" height="15.94"/>
  <rect class="cls-6" x="281.7" y="468.75" width="15.94" height="15.94"/>
  <rect class="cls-2" x="297.64" y="357.2" width="15.94" height="15.94"/>
  <rect class="cls-6" x="313.57" y="357.2" width="15.94" height="15.94"/>
  <rect class="cls-6" x="329.51" y="357.2" width="15.94" height="15.94"/>
  <rect class="cls-1" x="345.44" y="357.2" width="15.94" height="15.94"/>
  <rect class="cls-4" x="377.31" y="357.2" width="15.94" height="15.94"/>
  <rect class="cls-4" x="393.25" y="357.2" width="15.94" height="15.94"/>
  <rect class="cls-1" x="409.18" y="357.2" width="15.94" height="15.94"/>
  <rect class="cls-6" x="488.86" y="357.2" width="15.94" height="15.94"/>
  <rect class="cls-3" x="520.73" y="357.2" width="15.94" height="15.94"/>
  <rect class="cls-2" x="536.66" y="357.2" width="15.94" height="15.94"/>
  <rect class="cls-2" x="297.64" y="373.14" width="15.94" height="15.94"/>
  <rect class="cls-2" x="313.57" y="373.14" width="15.94" height="15.94"/>
  <rect class="cls-4" x="329.51" y="373.14" width="15.94" height="15.94"/>
  <rect class="cls-4" x="345.44" y="373.14" width="15.94" height="15.94"/>
  <rect class="cls-1" x="361.38" y="373.14" width="15.94" height="15.94"/>
  <rect class="cls-4" x="377.31" y="373.14" width="15.94" height="15.94"/>
  <rect class="cls-1" x="393.25" y="373.14" width="15.94" height="15.94"/>
  <rect class="cls-1" x="409.18" y="373.14" width="15.94" height="15.94"/>
  <rect class="cls-1" x="425.12" y="373.14" width="15.94" height="15.94"/>
  <rect class="cls-8" x="441.05" y="373.14" width="15.94" height="15.94"/>
  <rect class="cls-1" x="456.99" y="373.14" width="15.94" height="15.94"/>
  <rect class="cls-1" x="488.86" y="373.14" width="15.94" height="15.94"/>
  <rect class="cls-3" x="520.73" y="373.14" width="15.94" height="15.94"/>
  <rect class="cls-1" x="313.57" y="389.07" width="15.94" height="15.94"/>
  <rect class="cls-1" x="361.38" y="389.07" width="15.94" height="15.94"/>
  <rect class="cls-6" x="377.31" y="389.07" width="15.94" height="15.94"/>
  <rect class="cls-1" x="409.18" y="389.07" width="15.94" height="15.94"/>
  <rect class="cls-1" x="441.05" y="389.07" width="15.94" height="15.94"/>
  <rect class="cls-7" x="456.99" y="389.07" width="15.94" height="15.94"/>
  <rect class="cls-7" x="488.86" y="389.07" width="15.94" height="15.94"/>
  <rect class="cls-1" x="297.64" y="405.01" width="15.94" height="15.94"/>
  <rect class="cls-3" x="313.57" y="405.01" width="15.94" height="15.94"/>
  <rect class="cls-8" x="329.51" y="405.01" width="15.94" height="15.94"/>
  <rect class="cls-1" x="361.38" y="405.01" width="15.94" height="15.94"/>
  <rect class="cls-6" x="377.31" y="405.01" width="15.94" height="15.94"/>
  <rect class="cls-6" x="393.25" y="405.01" width="15.94" height="15.94"/>
  <rect class="cls-7" x="441.05" y="405.01" width="15.94" height="15.94"/>
  <rect class="cls-7" x="456.99" y="405.01" width="15.94" height="15.94"/>
  <rect class="cls-7" x="488.86" y="405.01" width="15.94" height="15.94"/>
  <rect class="cls-1" x="504.79" y="405.01" width="15.94" height="15.94"/>
  <rect class="cls-1" x="520.73" y="405.01" width="15.94" height="15.94"/>
  <rect class="cls-3" x="313.57" y="420.94" width="15.94" height="15.94"/>
  <rect class="cls-3" x="329.51" y="420.94" width="15.94" height="15.94"/>
  <rect class="cls-5" x="361.38" y="420.94" width="15.94" height="15.94"/>
  <rect class="cls-1" x="377.31" y="420.94" width="15.94" height="15.94"/>
  <rect class="cls-8" x="393.25" y="420.94" width="15.94" height="15.94"/>
  <rect class="cls-1" x="409.18" y="420.94" width="15.94" height="15.94"/>
  <rect class="cls-3" x="441.05" y="420.94" width="15.94" height="15.94"/>
  <rect class="cls-3" x="456.99" y="420.94" width="15.94" height="15.94"/>
  <rect class="cls-1" x="329.51" y="436.88" width="15.94" height="15.94"/>
  <rect class="cls-5" x="345.44" y="436.88" width="15.94" height="15.94"/>
  <rect class="cls-5" x="361.38" y="436.88" width="15.94" height="15.94"/>
  <rect class="cls-1" x="393.25" y="436.88" width="15.94" height="15.94"/>
  <rect class="cls-1" x="441.05" y="436.88" width="15.94" height="15.94"/>
  <rect class="cls-3" x="456.99" y="436.88" width="15.94" height="15.94"/>
  <rect class="cls-6" x="504.79" y="436.88" width="15.94" height="15.94"/>
  <rect class="cls-1" x="297.64" y="452.82" width="15.94" height="15.94"/>
  <rect class="cls-6" x="313.57" y="452.82" width="15.94" height="15.94"/>
  <rect class="cls-1" x="329.51" y="452.82" width="15.94" height="15.94"/>
  <rect class="cls-5" x="345.44" y="452.82" width="15.94" height="15.94"/>
  <rect class="cls-2" x="425.12" y="452.82" width="15.94" height="15.94"/>
  <rect class="cls-2" x="441.05" y="452.82" width="15.94" height="15.94"/>
  <rect class="cls-2" x="456.99" y="452.82" width="15.94" height="15.94"/>
  <rect class="cls-1" x="488.86" y="452.82" width="15.94" height="15.94"/>
  <rect class="cls-1" x="313.57" y="468.75" width="15.94" height="15.94"/>
  <rect class="cls-6" x="329.51" y="468.75" width="15.94" height="15.94"/>
  <rect class="cls-1" x="345.44" y="468.75" width="15.94" height="15.94"/>
  <rect class="cls-1" x="377.31" y="468.75" width="15.94" height="15.94"/>
  <rect class="cls-1" x="393.25" y="468.75" width="15.94" height="15.94"/>
  <rect class="cls-2" x="409.18" y="468.75" width="15.94" height="15.94"/>
  <rect class="cls-2" x="425.12" y="468.75" width="15.94" height="15.94"/>
  <rect class="cls-1" x="441.05" y="468.75" width="15.94" height="15.94"/>
  <rect class="cls-8" x="456.99" y="468.75" width="15.94" height="15.94"/>
  <rect class="cls-8" x="472.92" y="468.75" width="15.94" height="15.94"/>
  <rect class="cls-1" x="488.86" y="468.75" width="15.94" height="15.94"/>
  <rect class="cls-4" x="504.79" y="468.75" width="15.94" height="15.94"/>
  <rect class="cls-4" x="520.73" y="468.75" width="15.94" height="15.94"/>
  <rect class="cls-1" x="536.66" y="468.75" width="15.94" height="15.94"/>
</svg>