<?xml version="1.0" encoding="UTF-8"?>
<svg id="Calque_1" data-name="Calque 1" xmlns="http://www.w3.org/2000/svg" viewBox="0 0 510.3 121.3">
  <defs>
    <style>
      .cls-1 {
        stroke-width: 0px;
      }
    </style>
  </defs>
  <path class="cls-1" d="m30.1,78.3c12.6-20.4,25.2-40.7,37.7-61.1h71.2l-13,21.2h-46.6c-3.1,4.9-6.1,9.9-9.2,14.8-4.1,6.7-8.3,13.4-12.4,20-6.3,10.4-12.7,20.8-19.1,31.1m39.4-55.7h42.1l-12.4,20h-42.1M20.6,17.2h42.1l-12.4,20"/>
  <g>
    <path class="cls-1" d="m167.7,75.7v-35.1h-11.6v-12h37.4v12h-11.6v42.5h-14.1c-.1,0-.1-7.4-.1-7.4"/>
    <path class="cls-1" d="m209.1,29.8v21c.8-1.1,2.5-3.2,5.4-4.4,1.8-.8,4-1.1,6.4-1.1,4.7,0,8.2,1.3,10.6,3.9,2.4,2.6,3.6,6,3.6,10.4v23.5h-13.1v-18.7c0-1.9-.1-3.4-.4-4.5-.3-1.2-.8-2-1.4-2.7-1.1-1-2.5-1.5-4.2-1.5-2.2,0-3.9.7-5.1,2s-1.8,3.2-1.8,5.7v19.8h-13.1V23.2"/>
    <path class="cls-1" d="m308,83.1l-14.2-9.1V28.7h31.2v12h-17v9.1h15.5v12h-15.5v19.3"/>
    <path class="cls-1" d="m327.7,62.9c0-2.7.5-5.3,1.7-7.7,1.1-2.4,2.6-4.5,4.6-6.2,2-1.8,4.3-3.1,7-4.1s5.7-1.5,8.9-1.5,6.1.5,8.8,1.5c2.7,1,5.1,2.4,7.1,4.1,2,1.8,3.5,3.9,4.7,6.3,1.1,2.4,1.7,5.1,1.7,8s-.6,5.6-1.7,8-2.7,4.5-4.7,6.3-4.3,3.1-7.1,4.1-5.8,1.4-9,1.4-6.1-.5-8.8-1.4-5-2.3-7-4.1c-2-1.8-3.5-3.9-4.6-6.4-1.1-2.5-1.6-5.3-1.6-8.3h0Zm13.8.1c0,1.2.2,2.4.7,3.4s1.1,1.9,1.8,2.7c.8.8,1.6,1.4,2.7,1.8,1,.4,2.1.6,3.3.6s2.2-.2,3.3-.6,1.9-1,2.7-1.8c.8-.8,1.4-1.7,1.8-2.7.5-1,.7-2.1.7-3.4s-.2-2.2-.7-3.3-1.1-1.9-1.8-2.7c-.8-.8-1.6-1.4-2.7-1.8s-2.1-.6-3.3-.6-2.2.2-3.3.6c-1,.4-1.9,1-2.7,1.8-.8.8-1.4,1.7-1.8,2.7-.5,1.1-.7,2.2-.7,3.3h0Z"/>
    <path class="cls-1" d="m374.7,46.1h13.1v6.1c1.4-2.2,3.1-3.9,5.1-5.1,2-1.2,4.4-1.8,7.1-1.8h1.1c.4,0,.9,0,1.4.1v12.5c-1.7-.9-3.6-1.3-5.6-1.3-3,0-5.3.9-6.8,2.7s-2.3,4.4-2.3,7.9v15.9h-13.1v-37h0Z"/>
    <path class="cls-1" d="m448.1,45.5v34.5c0,2.3-.2,4.2-.4,5.6-.2,1.6-.6,3.1-1,4.3-.6,1.6-1.5,3.1-2.7,4.4-1.2,1.4-2.7,2.6-4.4,3.6s-3.7,1.8-5.9,2.4c-2.2.6-4.6.9-7.1.9-2.9,0-5.5-.4-7.9-1.1s-4.5-1.7-6.3-3-3.3-2.8-4.4-4.5c-1.2-1.7-1.9-3.6-2.3-5.6h14.7c.9,2.5,3,3.7,6.2,3.7,2.7,0,4.9-.8,6.3-2.3s2.2-3.7,2.2-6.4v-3.5c-1,.9-1.9,1.7-2.8,2.3-.9.6-1.8,1.1-2.7,1.5-.9.4-1.9.7-2.9.8s-2.1.2-3.3.2c-2.6,0-5.1-.5-7.3-1.4-2.2-.9-4.1-2.2-5.7-3.8-1.6-1.6-2.9-3.6-3.8-5.9s-1.3-4.8-1.3-7.6.5-5.5,1.4-7.9,2.3-4.5,3.9-6.4c1.7-1.8,3.6-3.2,5.9-4.3,2.3-1,4.8-1.5,7.5-1.5,4.4,0,8.1,1.6,11,4.9v-3.9h13.1Zm-29.4,18.3c0,1.2.2,2.3.6,3.4.4,1,1,1.9,1.8,2.7s1.6,1.4,2.7,1.8c1,.4,2.1.6,3.4.6s2.2-.2,3.3-.6,1.9-1,2.7-1.8c.8-.8,1.4-1.7,1.8-2.7.5-1,.7-2.1.7-3.3s-.2-2.3-.7-3.3-1.1-1.9-1.8-2.7c-.8-.8-1.7-1.4-2.7-1.8-1-.4-2.1-.6-3.2-.6s-2.2.2-3.2.7-1.9,1.1-2.7,1.8c-.8.8-1.4,1.6-1.8,2.6-.6,1-.9,2.1-.9,3.2h0Z"/>
    <path class="cls-1" d="m463.2,66.4c0,5.4,2.5,8,7.6,8,2.7,0,4.8-1.1,6.1-3.3h12c-2.4,8.1-8.5,12.1-18.2,12.1-3,0-5.7-.5-8.2-1.3-2.5-.9-4.6-2.2-6.4-3.8-1.8-1.6-3.1-3.6-4.1-5.9s-1.4-4.9-1.4-7.7.5-5.6,1.4-7.9c.9-2.4,2.2-4.4,3.9-6s3.8-2.9,6.2-3.8c2.4-.9,5.1-1.3,8.1-1.3s5.7.5,8,1.3c2.4.9,4.4,2.2,6,3.9,1.7,1.7,2.9,3.8,3.8,6.2.9,2.5,1.3,5.2,1.3,8.3v1.3l-26.1-.1h0Zm14.6-7.2c-.4-1.7-1.3-3.1-2.5-4.2-1.3-1-2.8-1.6-4.7-1.6s-3.5.5-4.7,1.5-2,2.4-2.3,4.3h14.2Z"/>
    <path class="cls-1" d="m250.1,66.4c0,5.4,2.5,8,7.6,8,2.7,0,4.8-1.1,6.1-3.3h12c-2.4,8.1-8.5,12.1-18.2,12.1-3,0-5.7-.5-8.2-1.3-2.5-.9-4.6-2.2-6.4-3.8-1.8-1.6-3.1-3.6-4.1-5.9s-1.4-4.9-1.4-7.7.5-5.6,1.4-7.9c.9-2.4,2.2-4.4,3.9-6s3.8-2.9,6.2-3.8c2.4-.9,5.1-1.3,8.1-1.3s5.7.5,8,1.3c2.4.9,4.4,2.2,6,3.9s2.9,3.8,3.8,6.2c.9,2.5,1.3,5.2,1.3,8.3v1.3l-26.1-.1h0Zm14.5-7.2c-.4-1.7-1.3-3.1-2.5-4.2-1.3-1-2.8-1.6-4.7-1.6s-3.5.5-4.7,1.5-2,2.4-2.3,4.3h14.2Z"/>
  </g>
</svg>