<?xml version="1.0" encoding="utf-8"?>
<!-- Generator: Adobe Illustrator 28.0.0, SVG Export Plug-In . SVG Version: 6.00 Build 0)  -->
<svg version="1.1" id="Calque_1" xmlns="http://www.w3.org/2000/svg" xmlns:xlink="http://www.w3.org/1999/xlink" x="0px" y="0px"
	 viewBox="0 0 510.3 121.3" style="enable-background:new 0 0 510.3 121.3;" xml:space="preserve">
<style type="text/css">
	.st0{fill:#015453;}
</style>
<path class="st0" d="M30.1,78.3c12.6-20.4,25.2-40.7,37.7-61.1H139L126,38.4H79.4c-3.1,4.9-6.1,9.9-9.2,14.8
	c-4.1,6.7-8.3,13.4-12.4,20C51.5,83.6,45.1,94,38.7,104.3 M78.1,48.6h42.1l-12.4,20H65.7 M20.6,17.2h42.1l-12.4,20"/>
<g>
	<path class="st0" d="M167.7,75.7c0-0.4,0-34.7,0-35.1h-11.6v-12h37.4v12h-11.6v42.5h-14.1C167.7,83.1,167.7,75.7,167.7,75.7"/>
	<path class="st0" d="M209.1,29.8v21c0.8-1.1,2.5-3.2,5.4-4.4c1.8-0.8,4-1.1,6.4-1.1c4.7,0,8.2,1.3,10.6,3.9c2.4,2.6,3.6,6,3.6,10.4
		v23.5H222V64.4c0-1.9-0.1-3.4-0.4-4.5c-0.3-1.2-0.8-2-1.4-2.7c-1.1-1-2.5-1.5-4.2-1.5c-2.2,0-3.9,0.7-5.1,2s-1.8,3.2-1.8,5.7v19.8
		h-13.1V23.2"/>
	<path class="st0" d="M308,83.1L293.8,74c0-15.1,0-30.2,0-45.3H325v12h-17v9.1h15.5v12H308v19.3"/>
	<path class="st0" d="M327.7,62.9c0-2.7,0.5-5.3,1.7-7.7c1.1-2.4,2.6-4.5,4.6-6.2c2-1.8,4.3-3.1,7-4.1c2.7-1,5.7-1.5,8.9-1.5
		s6.1,0.5,8.8,1.5c2.7,1,5.1,2.4,7.1,4.1c2,1.8,3.5,3.9,4.7,6.3c1.1,2.4,1.7,5.1,1.7,8s-0.6,5.6-1.7,8s-2.7,4.5-4.7,6.3
		c-2,1.8-4.3,3.1-7.1,4.1s-5.8,1.4-9,1.4s-6.1-0.5-8.8-1.4s-5-2.3-7-4.1c-2-1.8-3.5-3.9-4.6-6.4C328.2,68.7,327.7,65.9,327.7,62.9
		L327.7,62.9z M341.5,63c0,1.2,0.2,2.4,0.7,3.4c0.5,1,1.1,1.9,1.8,2.7c0.8,0.8,1.6,1.4,2.7,1.8c1,0.4,2.1,0.6,3.3,0.6
		s2.2-0.2,3.3-0.6s1.9-1,2.7-1.8c0.8-0.8,1.4-1.7,1.8-2.7c0.5-1,0.7-2.1,0.7-3.4s-0.2-2.2-0.7-3.3s-1.1-1.9-1.8-2.7
		c-0.8-0.8-1.6-1.4-2.7-1.8s-2.1-0.6-3.3-0.6s-2.2,0.2-3.3,0.6c-1,0.4-1.9,1-2.7,1.8c-0.8,0.8-1.4,1.7-1.8,2.7
		C341.7,60.8,341.5,61.9,341.5,63L341.5,63z"/>
	<path class="st0" d="M374.7,46.1h13.1v6.1c1.4-2.2,3.1-3.9,5.1-5.1c2-1.2,4.4-1.8,7.1-1.8h1.1c0.4,0,0.9,0,1.4,0.1v12.5
		c-1.7-0.9-3.6-1.3-5.6-1.3c-3,0-5.3,0.9-6.8,2.7s-2.3,4.4-2.3,7.9v15.9h-13.1L374.7,46.1L374.7,46.1z"/>
	<path class="st0" d="M448.1,45.5V80c0,2.3-0.2,4.2-0.4,5.6c-0.2,1.6-0.6,3.1-1,4.3c-0.6,1.6-1.5,3.1-2.7,4.4
		c-1.2,1.4-2.7,2.6-4.4,3.6s-3.7,1.8-5.9,2.4c-2.2,0.6-4.6,0.9-7.1,0.9c-2.9,0-5.5-0.4-7.9-1.1s-4.5-1.7-6.3-3
		c-1.8-1.3-3.3-2.8-4.4-4.5c-1.2-1.7-1.9-3.6-2.3-5.6h14.7c0.9,2.5,3,3.7,6.2,3.7c2.7,0,4.9-0.8,6.3-2.3s2.2-3.7,2.2-6.4v-3.5
		c-1,0.9-1.9,1.7-2.8,2.3c-0.9,0.6-1.8,1.1-2.7,1.5c-0.9,0.4-1.9,0.7-2.9,0.8s-2.1,0.2-3.3,0.2c-2.6,0-5.1-0.5-7.3-1.4
		c-2.2-0.9-4.1-2.2-5.7-3.8c-1.6-1.6-2.9-3.6-3.8-5.9c-0.9-2.3-1.3-4.8-1.3-7.6s0.5-5.5,1.4-7.9s2.3-4.5,3.9-6.4
		c1.7-1.8,3.6-3.2,5.9-4.3c2.3-1,4.8-1.5,7.5-1.5c4.4,0,8.1,1.6,11,4.9v-3.9H448.1L448.1,45.5z M418.7,63.8c0,1.2,0.2,2.3,0.6,3.4
		c0.4,1,1,1.9,1.8,2.7s1.6,1.4,2.7,1.8c1,0.4,2.1,0.6,3.4,0.6s2.2-0.2,3.3-0.6s1.9-1,2.7-1.8c0.8-0.8,1.4-1.7,1.8-2.7
		c0.5-1,0.7-2.1,0.7-3.3s-0.2-2.3-0.7-3.3s-1.1-1.9-1.8-2.7c-0.8-0.8-1.7-1.4-2.7-1.8c-1-0.4-2.1-0.6-3.2-0.6s-2.2,0.2-3.2,0.7
		s-1.9,1.1-2.7,1.8c-0.8,0.8-1.4,1.6-1.8,2.6C419,61.6,418.7,62.7,418.7,63.8L418.7,63.8z"/>
	<path class="st0" d="M463.2,66.4c0,5.4,2.5,8,7.6,8c2.7,0,4.8-1.1,6.1-3.3h12c-2.4,8.1-8.5,12.1-18.2,12.1c-3,0-5.7-0.5-8.2-1.3
		c-2.5-0.9-4.6-2.2-6.4-3.8c-1.8-1.6-3.1-3.6-4.1-5.9c-1-2.3-1.4-4.9-1.4-7.7s0.5-5.6,1.4-7.9c0.9-2.4,2.2-4.4,3.9-6
		s3.8-2.9,6.2-3.8c2.4-0.9,5.1-1.3,8.1-1.3c3,0,5.7,0.5,8,1.3c2.4,0.9,4.4,2.2,6,3.9c1.7,1.7,2.9,3.8,3.8,6.2
		c0.9,2.5,1.3,5.2,1.3,8.3v1.3L463.2,66.4L463.2,66.4z M477.8,59.2c-0.4-1.7-1.3-3.1-2.5-4.2c-1.3-1-2.8-1.6-4.7-1.6
		c-1.9,0-3.5,0.5-4.7,1.5c-1.2,1-2,2.4-2.3,4.3L477.8,59.2L477.8,59.2z"/>
	<path class="st0" d="M250.1,66.4c0,5.4,2.5,8,7.6,8c2.7,0,4.8-1.1,6.1-3.3h12c-2.4,8.1-8.5,12.1-18.2,12.1c-3,0-5.7-0.5-8.2-1.3
		c-2.5-0.9-4.6-2.2-6.4-3.8c-1.8-1.6-3.1-3.6-4.1-5.9c-1-2.3-1.4-4.9-1.4-7.7s0.5-5.6,1.4-7.9c0.9-2.4,2.2-4.4,3.9-6
		s3.8-2.9,6.2-3.8c2.4-0.9,5.1-1.3,8.1-1.3s5.7,0.5,8,1.3c2.4,0.9,4.4,2.2,6,3.9s2.9,3.8,3.8,6.2c0.9,2.5,1.3,5.2,1.3,8.3v1.3
		L250.1,66.4L250.1,66.4z M264.6,59.2c-0.4-1.7-1.3-3.1-2.5-4.2c-1.3-1-2.8-1.6-4.7-1.6c-1.9,0-3.5,0.5-4.7,1.5
		c-1.2,1-2,2.4-2.3,4.3L264.6,59.2L264.6,59.2z"/>
</g>
</svg>
