<?xml version="1.0" encoding="UTF-8"?>
<svg id="Calque_1" data-name="Calque 1" xmlns="http://www.w3.org/2000/svg" viewBox="0 0 1615.71 277.52">
  <defs>
    <style>
      .cls-1, .cls-2 {
        stroke-width: 0px;
      }

      .cls-2 {
        fill: #1d1d1d;
      }
    </style>
  </defs>
  <path class="cls-1" d="M30.34,194.51C70.4,129.68,110.47,64.85,150.53.02h226.83l-41.65,67.39h-148.25c-9.72,15.72-19.44,31.45-29.15,47.17-13.15,21.27-26.29,42.55-39.44,63.82-20.42,33.03-40.83,66.07-61.25,99.1M183.22,100.09h134.07l-39.44,63.82h-134.07M0,0h134.07l-39.44,63.82"/>
  <g>
    <path class="cls-2" d="M849.39,34.76v68.4c2.56-3.46,8.06-10.34,17.68-14.26,5.97-2.43,12.97-3.65,20.98-3.65,15.24,0,26.75,4.2,34.53,12.61,7.78,8.41,11.67,19.76,11.67,34.06v76.84h-42.66v-61.05c0-6.13-.47-11.08-1.41-14.85-.94-3.77-2.52-6.68-4.72-8.72-3.77-3.3-8.33-4.95-13.67-4.95-7.23,0-12.77,2.16-16.62,6.48-3.85,4.32-5.77,10.49-5.77,18.51v64.58h-42.66V13.13"/>
    <path class="cls-2" d="M1044.33,215.73,998.13,186.03c0-49.34,0-98.68,0-148.02h101.82v39.13h-55.62v29.7h50.67v39.13h-50.67v63.14"/>
    <path class="cls-2" d="M1099.95,142.77c0-8.96,1.8-17.33,5.42-25.1,3.61-7.78,8.64-14.53,15.08-20.27,6.44-5.73,14.1-10.25,22.98-13.55,8.88-3.3,18.58-4.95,29.11-4.95s19.99,1.61,28.87,4.83c8.88,3.22,16.57,7.7,23.1,13.43,6.52,5.74,11.59,12.58,15.2,20.5,3.61,7.94,5.42,16.7,5.42,26.28s-1.85,18.35-5.54,26.28c-3.7,7.94-8.76,14.77-15.2,20.51-6.45,5.73-14.18,10.17-23.22,13.32-9.04,3.14-18.82,4.71-29.35,4.71s-19.96-1.57-28.76-4.71c-8.8-3.14-16.38-7.62-22.75-13.44-6.36-5.81-11.35-12.76-14.97-20.86-3.62-8.09-5.42-17.09-5.42-26.99ZM1144.97,143.24c0,4.09.75,7.82,2.24,11.2,1.49,3.38,3.45,6.32,5.89,8.84,2.43,2.52,5.34,4.48,8.72,5.9,3.37,1.41,6.95,2.12,10.72,2.12s7.34-.71,10.72-2.12c3.38-1.41,6.29-3.38,8.72-5.9,2.43-2.51,4.39-5.46,5.89-8.84,1.49-3.38,2.24-7.03,2.24-10.96s-.75-7.34-2.24-10.72c-1.5-3.38-3.46-6.32-5.89-8.84-2.44-2.51-5.34-4.48-8.72-5.89-3.38-1.41-6.95-2.12-10.72-2.12s-7.35.71-10.72,2.12c-3.38,1.41-6.29,3.38-8.72,5.89-2.44,2.52-4.4,5.42-5.89,8.72-1.5,3.3-2.24,6.83-2.24,10.61Z"/>
    <path class="cls-2" d="M1252.53,87.85h42.66v19.8c4.55-7.23,10.13-12.77,16.74-16.62,6.6-3.85,14.3-5.77,23.1-5.77h3.65c1.33,0,2.86.16,4.59.47v40.78c-5.66-2.83-11.78-4.25-18.38-4.25-9.9,0-17.33,2.95-22.27,8.84-4.95,5.89-7.42,14.5-7.42,25.81v51.85h-42.66v-120.92Z"/>
    <path class="cls-2" d="M1483.28,85.54v112.67c.13,7.52-.53,13.71-1.18,18.15-.79,5.34-1.88,10.06-3.3,14.14-1.89,5.19-4.83,10.02-8.84,14.5-4.01,4.48-8.84,8.37-14.5,11.67-5.66,3.3-12.06,5.89-19.21,7.78-7.15,1.89-14.89,2.83-23.22,2.83-9.43,0-18.07-1.18-25.93-3.54-7.86-2.36-14.73-5.62-20.63-9.78-5.89-4.16-10.72-9.04-14.49-14.61-3.77-5.58-6.29-11.67-7.54-18.27h48.08c2.98,8.01,9.74,12.02,20.27,12.02,8.96,0,15.83-2.52,20.63-7.54,4.79-5.03,7.19-12.02,7.19-20.98v-11.55c-3.14,2.98-6.17,5.46-9.07,7.42-2.91,1.97-5.86,3.58-8.84,4.83-2.99,1.26-6.13,2.16-9.43,2.71-3.3.55-6.91.82-10.84.82-8.65,0-16.58-1.49-23.81-4.48-7.23-2.98-13.48-7.15-18.74-12.49-5.27-5.34-9.35-11.74-12.26-19.21-2.91-7.46-4.36-15.75-4.36-24.87s1.57-17.87,4.72-25.81c3.14-7.93,7.42-14.85,12.84-20.74,5.42-5.9,11.86-10.53,19.33-13.91,7.46-3.38,15.59-5.07,24.4-5.07,14.3,0,26.32,5.34,36.06,16.02v-12.73h42.66ZM1387.58,145.41c0,3.93.71,7.58,2.12,10.96,1.41,3.38,3.34,6.33,5.78,8.84,2.43,2.52,5.34,4.48,8.72,5.9,3.38,1.41,7.03,2.12,10.96,2.12s7.34-.71,10.72-2.12c3.38-1.42,6.29-3.38,8.72-5.9,2.43-2.51,4.39-5.46,5.89-8.84,1.49-3.37,2.24-6.95,2.24-10.72s-.75-7.54-2.24-10.84c-1.5-3.3-3.5-6.21-6.01-8.72-2.51-2.51-5.46-4.48-8.84-5.89-3.38-1.41-6.88-2.12-10.49-2.12s-7.31.75-10.61,2.24c-3.3,1.5-6.21,3.46-8.72,5.89-2.52,2.44-4.52,5.31-6.01,8.61-1.5,3.3-2.24,6.83-2.24,10.61Z"/>
    <path class="cls-2" d="M1530.14,154.25c0,17.52,8.23,26.28,24.7,26.28,8.83,0,15.5-3.59,19.99-10.78h39.3c-7.94,26.35-27.78,39.53-59.52,39.53-9.73,0-18.64-1.46-26.73-4.38-8.08-2.92-15.01-7.08-20.77-12.47-5.77-5.39-10.22-11.83-13.36-19.32-3.15-7.49-4.72-15.87-4.72-25.16s1.5-18.22,4.49-25.94c2.99-7.71,7.26-14.26,12.8-19.65,5.54-5.39,12.24-9.54,20.1-12.47,7.86-2.92,16.73-4.38,26.61-4.38s18.49,1.46,26.28,4.38c7.79,2.92,14.38,7.15,19.77,12.69,5.39,5.54,9.51,12.32,12.35,20.33,2.84,8.01,4.27,17.03,4.27,27.07v4.27h-85.57ZM1577.75,130.67c-1.35-5.69-4.12-10.25-8.31-13.7-4.2-3.44-9.29-5.17-15.27-5.17-6.29,0-11.42,1.65-15.38,4.94-3.97,3.29-6.48,7.94-7.53,13.93h46.49Z"/>
    <path class="cls-2" d="M469.64,184.7c0-1.29,0-113.24,0-114.54h-37.95V31.04h122.09v39.13h-37.95v138.59h-46.2c0-.06,0-24,0-24.06"/>
    <path class="cls-2" d="M578.4,153.74c0,17.52,8.23,26.28,24.7,26.28,8.83,0,15.5-3.59,19.99-10.78h39.3c-7.94,26.35-27.78,39.53-59.52,39.53-9.73,0-18.64-1.46-26.73-4.38-8.08-2.92-15.01-7.08-20.77-12.47-5.77-5.39-10.22-11.83-13.36-19.32-3.15-7.49-4.72-15.87-4.72-25.16s1.5-18.22,4.49-25.94c2.99-7.71,7.26-14.26,12.8-19.65,5.54-5.39,12.24-9.54,20.1-12.47,7.86-2.92,16.73-4.38,26.61-4.38s18.49,1.46,26.28,4.38c7.79,2.92,14.38,7.15,19.77,12.69,5.39,5.54,9.51,12.32,12.35,20.33,2.84,8.01,4.27,17.03,4.27,27.07v4.27h-85.57ZM626.01,130.16c-1.35-5.69-4.12-10.25-8.31-13.7-4.2-3.44-9.29-5.17-15.27-5.17-6.29,0-11.42,1.65-15.38,4.94-3.97,3.29-6.48,7.94-7.53,13.93h46.49Z"/>
    <path class="cls-2" d="M668.99,142.65c0-48.42,36.12-66.61,69.37-66.61,23.56,0,58.38,8.36,63.35,53.58h-39c-2.88-13.76-10.73-19.91-24.61-19.91-20.68,0-28.8,14.99-28.8,32.94s8.12,32.44,28.8,32.44c14.4,0,21.73-6.64,24.61-20.15h39c-3.93,44.73-39.27,53.83-63.35,53.83-33.25,0-69.37-17.69-69.37-66.12Z"/>
  </g>
</svg>