<?xml version="1.0" encoding="UTF-8"?>
<svg id="Calque_1" data-name="Calque 1" xmlns="http://www.w3.org/2000/svg" viewBox="0 0 510.28 121.34">
  <defs>
    <style>
      .cls-1 {
        fill: #ffc98a;
        stroke-width: 0px;
      }
    </style>
  </defs>
  <path class="cls-1" d="m30.09,78.28c12.58-20.35,25.16-40.71,37.74-61.06h71.22l-13.08,21.16h-46.55c-3.05,4.94-6.1,9.87-9.15,14.81-4.13,6.68-8.26,13.36-12.38,20.04-6.41,10.37-12.82,20.74-19.23,31.12m39.43-55.71h42.09l-12.38,20.04h-42.09M20.57,17.22h42.09l-12.38,20.04"/>
  <g>
    <path class="cls-1" d="m167.73,75.73v-35.08h-11.62v-11.98h37.39v11.98h-11.62v42.45h-14.15v-7.37"/>
    <path class="cls-1" d="m209.14,29.81v20.95c.78-1.06,2.47-3.17,5.41-4.37,1.83-.75,3.97-1.12,6.42-1.12,4.67,0,8.19,1.29,10.58,3.86,2.38,2.57,3.57,6.05,3.57,10.43v23.53h-13.07v-18.7c0-1.88-.14-3.39-.43-4.55-.29-1.16-.77-2.05-1.44-2.67-1.15-1.01-2.55-1.52-4.19-1.52-2.21,0-3.91.66-5.09,1.98s-1.77,3.21-1.77,5.67v19.78h-13.07V23.16"/>
    <path class="cls-1" d="m307.97,83.1l-14.15-9.1V28.67h31.18v11.98h-17.04v9.1h15.52v11.98h-15.52v19.34"/>
    <path class="cls-1" d="m327.69,62.89c0-2.74.55-5.31,1.66-7.69,1.11-2.38,2.65-4.45,4.62-6.21,1.97-1.76,4.32-3.14,7.04-4.15,2.72-1.01,5.69-1.52,8.92-1.52s6.12.49,8.84,1.48c2.72.99,5.08,2.36,7.07,4.11,2,1.76,3.55,3.85,4.66,6.28,1.11,2.43,1.66,5.11,1.66,8.05s-.57,5.62-1.7,8.05-2.68,4.52-4.66,6.28c-1.97,1.76-4.34,3.12-7.11,4.08s-5.76,1.44-8.99,1.44-6.11-.48-8.81-1.44-5.02-2.33-6.97-4.12c-1.95-1.78-3.48-3.91-4.58-6.39-1.11-2.48-1.66-5.23-1.66-8.27v.02Zm13.79.14c0,1.25.23,2.39.69,3.43.46,1.03,1.06,1.94,1.8,2.71.75.77,1.64,1.37,2.67,1.81,1.03.43,2.13.65,3.28.65s2.25-.22,3.28-.65,1.93-1.03,2.67-1.81c.75-.77,1.35-1.67,1.8-2.71.46-1.03.69-2.15.69-3.36s-.23-2.25-.69-3.28-1.06-1.94-1.8-2.71c-.75-.77-1.64-1.37-2.67-1.8s-2.13-.65-3.28-.65-2.25.22-3.28.65c-1.04.43-1.93,1.03-2.67,1.8-.75.77-1.35,1.66-1.8,2.67-.46,1.01-.69,2.09-.69,3.25h0Z"/>
    <path class="cls-1" d="m374.73,46.07h13.07v6.06c1.39-2.21,3.1-3.91,5.13-5.09,2.02-1.18,4.38-1.77,7.07-1.77h1.12c.41,0,.88.05,1.41.14v12.49c-1.73-.87-3.61-1.3-5.63-1.3-3.03,0-5.31.9-6.82,2.71s-2.27,4.44-2.27,7.9v15.88h-13.07v-37.03h-.01Z"/>
    <path class="cls-1" d="m448.06,45.46v34.51c.04,2.3-.16,4.2-.36,5.56-.24,1.64-.58,3.08-1.01,4.33-.58,1.59-1.48,3.07-2.71,4.44-1.23,1.37-2.71,2.56-4.44,3.57s-3.69,1.8-5.88,2.38c-2.19.58-4.56.87-7.11.87-2.89,0-5.53-.36-7.94-1.08s-4.51-1.72-6.32-3c-1.8-1.28-3.28-2.77-4.44-4.48-1.16-1.71-1.93-3.57-2.31-5.59h14.73c.91,2.45,2.98,3.68,6.21,3.68,2.74,0,4.85-.77,6.32-2.31s2.2-3.68,2.2-6.42v-3.54c-.96.91-1.89,1.67-2.78,2.27-.89.6-1.79,1.1-2.71,1.48-.92.39-1.88.66-2.89.83s-2.12.25-3.32.25c-2.65,0-5.08-.46-7.29-1.37-2.21-.91-4.13-2.19-5.74-3.83-1.61-1.64-2.86-3.6-3.75-5.88-.89-2.29-1.34-4.83-1.34-7.62s.48-5.47,1.44-7.9,2.27-4.55,3.93-6.35c1.66-1.81,3.63-3.22,5.92-4.26,2.29-1.03,4.78-1.55,7.47-1.55,4.38,0,8.06,1.64,11.04,4.91v-3.9h13.08Zm-29.31,18.34c0,1.2.22,2.32.65,3.36.43,1.04,1.02,1.94,1.77,2.71s1.64,1.37,2.67,1.81c1.03.43,2.15.65,3.36.65s2.25-.22,3.28-.65,1.93-1.03,2.67-1.81c.75-.77,1.35-1.67,1.8-2.71.46-1.03.69-2.13.69-3.28s-.23-2.31-.69-3.32-1.07-1.9-1.84-2.67c-.77-.77-1.67-1.37-2.71-1.8-1.04-.43-2.11-.65-3.21-.65s-2.24.23-3.25.69-1.9,1.06-2.67,1.8c-.77.75-1.38,1.62-1.84,2.64-.46,1.01-.69,2.09-.69,3.25v-.02Z"/>
    <path class="cls-1" d="m463.19,66.4c0,5.36,2.52,8.05,7.57,8.05,2.71,0,4.75-1.1,6.12-3.3h12.04c-2.43,8.07-8.51,12.11-18.23,12.11-2.98,0-5.71-.45-8.19-1.34-2.48-.89-4.6-2.17-6.36-3.82-1.77-1.65-3.13-3.62-4.09-5.92-.96-2.29-1.44-4.86-1.44-7.7s.46-5.58,1.38-7.94c.92-2.36,2.22-4.37,3.92-6.02s3.75-2.92,6.16-3.82c2.41-.89,5.12-1.34,8.15-1.34s5.66.45,8.05,1.34c2.38.89,4.4,2.19,6.05,3.89,1.65,1.7,2.91,3.77,3.78,6.23.87,2.45,1.31,5.22,1.31,8.29v1.31h-26.21v-.02Zm14.58-7.22c-.41-1.74-1.26-3.14-2.54-4.2-1.28-1.05-2.84-1.58-4.68-1.58-1.93,0-3.5.51-4.71,1.51-1.22,1.01-1.98,2.43-2.31,4.26h14.24,0Z"/>
    <path class="cls-1" d="m250.06,66.4c0,5.36,2.52,8.05,7.57,8.05,2.71,0,4.75-1.1,6.12-3.3h12.04c-2.43,8.07-8.51,12.11-18.23,12.11-2.98,0-5.71-.45-8.19-1.34-2.48-.89-4.6-2.17-6.36-3.82-1.77-1.65-3.13-3.62-4.09-5.92-.96-2.29-1.44-4.86-1.44-7.7s.46-5.58,1.38-7.94c.92-2.36,2.22-4.37,3.92-6.02s3.75-2.92,6.16-3.82c2.41-.89,5.12-1.34,8.15-1.34s5.66.45,8.05,1.34c2.38.89,4.4,2.19,6.05,3.89s2.91,3.77,3.78,6.23c.87,2.45,1.31,5.22,1.31,8.29v1.31h-26.21v-.02Zm14.58-7.22c-.41-1.74-1.26-3.14-2.54-4.2-1.28-1.05-2.84-1.58-4.68-1.58-1.93,0-3.5.51-4.71,1.51-1.22,1.01-1.98,2.43-2.31,4.26h14.24Z"/>
  </g>
</svg>