<?xml version="1.0" encoding="UTF-8"?>
<svg id="Calque_1" data-name="Calque 1" xmlns="http://www.w3.org/2000/svg" viewBox="0 0 595.28 841.89">
  <defs>
    <style>
      .cls-1 {
        stroke-width: 0px;
      }
    </style>
  </defs>
  <path class="cls-1" d="m220.21,395.55c5.22-27.3,10.43-54.6,15.65-81.9,25.76-9.84,51.52-19.67,77.28-29.51l-5.42,28.38-50.51,19.28c-1.27,6.62-2.53,13.24-3.8,19.86-1.71,8.96-3.42,17.92-5.14,26.88-2.66,13.91-5.32,27.82-7.98,41.73"/>
  <path class="cls-1" d="m270.65,344.06c24.83-12.48,49.67-24.96,74.5-37.44,23.48,14.45,46.97,28.9,70.45,43.35l-25.81,12.97-46.05-28.33c-6.02,3.03-12.05,6.05-18.07,9.08-8.15,4.1-16.3,8.19-24.45,12.29-12.65,6.36-25.31,12.72-37.96,19.08"/>
  <path class="cls-1" d="m342.21,352.73c25.02,12.1,50.04,24.21,75.06,36.31,2.83,27.43,5.67,54.86,8.5,82.28l-26.01-12.58-5.55-53.78c-6.07-2.94-12.14-5.87-18.21-8.81-8.21-3.97-16.42-7.94-24.63-11.92-12.75-6.17-25.5-12.34-38.25-18.5"/>
  <path class="cls-1" d="m378.89,414.78c5.63,27.22,11.25,54.43,16.88,81.65-20.04,18.94-40.07,37.89-60.11,56.83l-5.85-28.29,39.28-37.14c-1.36-6.6-2.73-13.2-4.09-19.81-1.85-8.93-3.69-17.86-5.54-26.8-2.87-13.87-5.73-27.74-8.6-41.61"/>
  <path class="cls-1" d="m351.99,481.65c-18.17,21.03-36.34,42.07-54.5,63.1-27.23-4.36-54.45-8.73-81.68-13.09l18.89-21.86,53.38,8.55c4.41-5.1,8.81-10.2,13.22-15.31,5.96-6.9,11.92-13.8,17.89-20.71,9.26-10.72,18.52-21.44,27.77-32.15"/>
  <path class="cls-1" d="m282.57,501.03c-27.75-1.61-55.49-3.22-83.24-4.83-13.11-24.26-26.23-48.51-39.34-72.77l28.84,1.67,25.71,47.56c6.73.39,13.46.78,20.19,1.17,9.11.53,18.21,1.06,27.32,1.58,14.14.82,28.28,1.64,42.42,2.46"/>
  <path class="cls-1" d="m224.93,457.74c-15.61-22.99-31.23-45.98-46.84-68.98l33.78-75.51,16.23,23.9-22.08,49.35c3.79,5.58,7.57,11.15,11.36,16.73,5.12,7.55,10.25,15.09,15.37,22.64,7.96,11.72,15.91,23.43,23.87,35.15"/>
</svg>