<?xml version="1.0" encoding="UTF-8"?>
<svg id="Calque_1" data-name="Calque 1" xmlns="http://www.w3.org/2000/svg" viewBox="0 0 595.28 841.89">
  <defs>
    <style>
      .cls-1 {
        stroke-width: 0px;
      }
    </style>
  </defs>
  <path class="cls-1" d="m353.17,469.72c-12.82,20.75-25.65,41.5-38.47,62.25h-72.6l13.33-21.57h47.45c3.11-5.03,6.22-10.07,9.33-15.1,4.21-6.81,8.42-13.62,12.62-20.43,6.53-10.57,13.07-21.15,19.6-31.72"/>
  <path class="cls-1" d="m227.63,444.65c-11.56-21.48-23.12-42.96-34.67-64.44l36.3-62.87,12.01,22.33-23.72,41.09c2.8,5.21,5.61,10.42,8.41,15.63,3.79,7.05,7.59,14.1,11.38,21.15,5.89,10.95,11.78,21.89,17.67,32.84"/>
  <path class="cls-1" d="m312.11,348.47c24.38.73,48.76,1.46,73.14,2.19l36.3,62.87-25.34-.76-23.72-41.09c-5.91-.18-11.83-.35-17.74-.53-8-.24-16-.48-24-.72-12.42-.37-24.85-.74-37.27-1.12"/>
</svg>