<?xml version="1.0" encoding="UTF-8"?>
<svg id="Calque_1" data-name="Calque 1" xmlns="http://www.w3.org/2000/svg" viewBox="0 0 595.28 841.89">
  <defs>
    <style>
      .cls-1 {
        stroke-width: 0px;
      }
    </style>
  </defs>
  <path class="cls-1" d="m188.18,466.03c32.41-52.44,64.82-104.88,97.22-157.32h183.48l-33.69,54.51h-119.92c-7.86,12.72-15.72,25.44-23.58,38.16-10.64,17.21-21.27,34.42-31.91,51.63-16.51,26.72-33.03,53.44-49.54,80.17m101.6-143.52h108.45l-31.91,51.63h-108.45m-116.3-131.71h108.45l-31.91,51.63"/>
  <g>
    <path class="cls-1" d="m135.51,385.03c0-.31,0-27.22,0-27.53h-9.12v-9.41h29.35v9.41h-9.12v33.31h-11.1s0-5.77,0-5.78"/>
    <path class="cls-1" d="m168.01,348.99v16.44c.62-.83,1.94-2.48,4.25-3.43,1.43-.58,3.12-.88,5.04-.88,3.66,0,6.43,1.01,8.3,3.03,1.87,2.02,2.8,4.75,2.8,8.19v18.47h-10.25v-14.67c0-1.47-.11-2.66-.34-3.57-.23-.91-.6-1.61-1.13-2.1-.91-.79-2-1.19-3.29-1.19-1.74,0-3.07.52-3.99,1.56-.93,1.04-1.39,2.52-1.39,4.45v15.52h-10.25v-47.02"/>
    <path class="cls-1" d="m291.94,499.51-11.1-7.14c0-11.86,0-23.72,0-35.58h24.47v9.41h-13.37v7.14h12.18v9.41h-12.18v15.18"/>
    <path class="cls-1" d="m307.41,483.64c0-2.15.43-4.16,1.3-6.03.87-1.87,2.08-3.49,3.63-4.87,1.55-1.38,3.39-2.46,5.52-3.26,2.13-.79,4.47-1.19,7-1.19s4.81.39,6.94,1.16c2.13.77,3.98,1.85,5.55,3.23,1.57,1.38,2.79,3.02,3.65,4.93.87,1.91,1.3,4.01,1.3,6.32s-.45,4.41-1.33,6.32c-.89,1.91-2.11,3.55-3.65,4.93-1.55,1.38-3.41,2.45-5.58,3.2-2.17.75-4.52,1.13-7.05,1.13s-4.8-.38-6.91-1.13c-2.12-.76-3.94-1.83-5.47-3.23-1.53-1.4-2.73-3.07-3.6-5.01-.87-1.95-1.3-4.11-1.3-6.49Zm10.82.11c0,.98.18,1.88.54,2.69.36.81.83,1.52,1.42,2.12.58.6,1.28,1.08,2.1,1.42.81.34,1.67.51,2.58.51s1.77-.17,2.58-.51,1.51-.81,2.1-1.42c.58-.6,1.06-1.31,1.42-2.12.36-.81.54-1.69.54-2.63s-.18-1.77-.54-2.58c-.36-.81-.83-1.52-1.42-2.12-.59-.6-1.28-1.08-2.1-1.42s-1.67-.51-2.58-.51-1.77.17-2.58.51c-.81.34-1.51.81-2.1,1.42-.59.6-1.06,1.3-1.42,2.1-.36.79-.54,1.64-.54,2.55Z"/>
    <path class="cls-1" d="m344.33,470.44h10.25v4.76c1.09-1.74,2.44-3.07,4.02-3.99,1.59-.92,3.44-1.39,5.55-1.39h.88c.32,0,.69.04,1.1.11v9.8c-1.36-.68-2.83-1.02-4.42-1.02-2.38,0-4.16.71-5.35,2.12s-1.78,3.48-1.78,6.2v12.46h-10.25v-29.06Z"/>
    <path class="cls-1" d="m401.88,469.96v27.08c.03,1.81-.13,3.3-.28,4.36-.19,1.28-.45,2.42-.79,3.4-.45,1.25-1.16,2.41-2.12,3.48-.96,1.08-2.12,2.01-3.48,2.8-1.36.79-2.9,1.42-4.62,1.87-1.72.45-3.58.68-5.58.68-2.27,0-4.34-.28-6.23-.85-1.89-.57-3.54-1.35-4.96-2.35-1.42-1-2.58-2.17-3.48-3.51-.91-1.34-1.51-2.8-1.81-4.39h11.56c.72,1.93,2.34,2.89,4.87,2.89,2.15,0,3.8-.6,4.96-1.81,1.15-1.21,1.73-2.89,1.73-5.04v-2.78c-.76.72-1.48,1.31-2.18,1.78-.7.47-1.41.86-2.12,1.16-.72.3-1.47.52-2.27.65s-1.66.2-2.61.2c-2.08,0-3.99-.36-5.72-1.08-1.74-.72-3.24-1.72-4.5-3-1.27-1.28-2.25-2.82-2.95-4.62-.7-1.79-1.05-3.79-1.05-5.98s.38-4.3,1.13-6.2c.75-1.91,1.78-3.57,3.09-4.99,1.3-1.42,2.85-2.53,4.65-3.34,1.79-.81,3.75-1.22,5.86-1.22,3.44,0,6.33,1.28,8.67,3.85v-3.06h10.25Zm-23,14.39c0,.94.17,1.82.51,2.63.34.81.8,1.52,1.39,2.12.58.6,1.28,1.08,2.1,1.42.81.34,1.69.51,2.63.51s1.77-.17,2.58-.51c.81-.34,1.51-.81,2.1-1.42.58-.6,1.06-1.31,1.42-2.12.36-.81.54-1.67.54-2.58s-.18-1.81-.54-2.61c-.36-.79-.84-1.49-1.45-2.1-.6-.6-1.31-1.08-2.12-1.42-.81-.34-1.65-.51-2.52-.51s-1.76.18-2.55.54c-.79.36-1.49.83-2.1,1.42-.6.59-1.09,1.28-1.44,2.07-.36.79-.54,1.64-.54,2.55Z"/>
    <path class="cls-1" d="m413.76,486.4c0,4.21,1.98,6.32,5.94,6.32,2.12,0,3.72-.86,4.8-2.59h9.45c-1.91,6.33-6.68,9.5-14.31,9.5-2.34,0-4.48-.35-6.42-1.05-1.94-.7-3.61-1.7-4.99-3-1.39-1.3-2.46-2.84-3.21-4.64-.76-1.8-1.13-3.81-1.13-6.05s.36-4.38,1.08-6.23c.72-1.85,1.74-3.43,3.08-4.72,1.33-1.3,2.94-2.29,4.83-3,1.89-.7,4.02-1.05,6.4-1.05s4.45.35,6.32,1.05c1.87.7,3.46,1.72,4.75,3.05,1.3,1.33,2.29,2.96,2.97,4.89.68,1.93,1.03,4.09,1.03,6.51v1.03h-20.57Zm11.44-5.67c-.32-1.37-.99-2.46-2-3.29-1.01-.83-2.23-1.24-3.67-1.24-1.51,0-2.75.4-3.7,1.19-.95.79-1.56,1.91-1.81,3.35h11.18Z"/>
    <path class="cls-1" d="m200.13,377.71c0,4.21,1.98,6.32,5.94,6.32,2.12,0,3.72-.86,4.8-2.59h9.45c-1.91,6.33-6.68,9.5-14.31,9.5-2.34,0-4.48-.35-6.42-1.05-1.94-.7-3.61-1.7-4.99-3-1.39-1.3-2.46-2.84-3.21-4.64-.76-1.8-1.13-3.81-1.13-6.05s.36-4.38,1.08-6.23c.72-1.85,1.74-3.43,3.08-4.72,1.33-1.3,2.94-2.29,4.83-3,1.89-.7,4.02-1.05,6.4-1.05s4.45.35,6.32,1.05c1.87.7,3.46,1.72,4.75,3.05,1.3,1.33,2.29,2.96,2.97,4.89.68,1.93,1.03,4.09,1.03,6.51v1.03h-20.57Zm11.44-5.67c-.32-1.37-.99-2.46-2-3.29-1.01-.83-2.23-1.24-3.67-1.24-1.51,0-2.75.4-3.7,1.19-.95.79-1.56,1.91-1.81,3.35h11.18Z"/>
  </g>
</svg>