<?xml version="1.0" encoding="UTF-8"?>
<svg id="Calque_1" data-name="Calque 1" xmlns="http://www.w3.org/2000/svg" viewBox="0 0 595.28 841.89">
  <defs>
    <style>
      .cls-1 {
        stroke-width: 0px;
      }
    </style>
  </defs>
  <path class="cls-1" d="m195.77,411.84c25.78-41.71,51.55-83.42,77.32-125.12h145.93l-26.79,43.36h-95.38c-6.25,10.12-12.5,20.23-18.76,30.35-8.46,13.69-16.92,27.37-25.38,41.06-13.13,21.25-26.27,42.51-39.4,63.76m80.8-114.15h86.25l-25.38,41.06h-86.25m-92.5-104.75h86.25l-25.38,41.06"/>
  <g>
    <path class="cls-1" d="m173.52,534.85c0-.32,0-27.77,0-28.08h-9.3v-9.59h29.94v9.59h-9.3v33.98h-11.33s0-5.89,0-5.9"/>
    <path class="cls-1" d="m206.68,498.09v16.77c.63-.85,1.98-2.53,4.33-3.5,1.46-.6,3.18-.9,5.14-.9,3.74,0,6.56,1.03,8.47,3.09,1.91,2.06,2.86,4.84,2.86,8.35v18.84h-10.46v-14.97c0-1.5-.12-2.72-.35-3.64-.23-.93-.62-1.64-1.16-2.14-.92-.81-2.04-1.21-3.35-1.21-1.77,0-3.13.53-4.07,1.59-.94,1.06-1.42,2.57-1.42,4.54v15.84h-10.46v-47.97"/>
    <path class="cls-1" d="m285.81,540.75-11.33-7.28c0-12.1,0-24.2,0-36.29h24.97v9.59h-13.64v7.28h12.43v9.59h-12.43v15.48"/>
    <path class="cls-1" d="m301.59,524.57c0-2.2.44-4.25,1.33-6.16.89-1.91,2.12-3.56,3.7-4.97,1.58-1.41,3.46-2.51,5.64-3.32,2.18-.81,4.56-1.21,7.14-1.21s4.9.4,7.08,1.18c2.18.79,4.06,1.89,5.66,3.29,1.6,1.41,2.84,3.08,3.73,5.03.89,1.95,1.33,4.1,1.33,6.44s-.45,4.5-1.36,6.44c-.91,1.95-2.15,3.62-3.73,5.03-1.58,1.41-3.48,2.49-5.69,3.27-2.22.77-4.62,1.16-7.2,1.16s-4.89-.39-7.05-1.16c-2.16-.77-4.02-1.87-5.58-3.3-1.56-1.42-2.78-3.13-3.67-5.11-.89-1.98-1.33-4.19-1.33-6.62Zm11.04.12c0,1,.18,1.92.55,2.75.36.83.85,1.55,1.44,2.17.6.62,1.31,1.1,2.14,1.45.83.35,1.7.52,2.63.52s1.8-.17,2.63-.52c.83-.35,1.54-.83,2.14-1.45.6-.62,1.08-1.34,1.44-2.17.37-.83.55-1.72.55-2.69s-.18-1.8-.55-2.63c-.37-.83-.85-1.55-1.44-2.17-.6-.62-1.31-1.1-2.14-1.44s-1.71-.52-2.63-.52-1.8.17-2.63.52c-.83.35-1.54.83-2.14,1.44-.6.62-1.08,1.33-1.44,2.14-.37.81-.55,1.68-.55,2.6Z"/>
    <path class="cls-1" d="m339.25,511.1h10.46v4.86c1.12-1.77,2.48-3.13,4.1-4.07,1.62-.94,3.51-1.42,5.66-1.42h.9c.33,0,.7.04,1.13.11v10c-1.39-.69-2.89-1.04-4.51-1.04-2.43,0-4.25.72-5.46,2.17-1.21,1.44-1.82,3.55-1.82,6.33v12.71h-10.46v-29.65Z"/>
    <path class="cls-1" d="m397.96,510.62v27.63c.03,1.84-.13,3.36-.29,4.45-.19,1.31-.46,2.47-.81,3.47-.46,1.27-1.18,2.46-2.17,3.55s-2.17,2.05-3.55,2.86c-1.39.81-2.96,1.44-4.71,1.91-1.75.46-3.65.69-5.69.69-2.31,0-4.43-.29-6.36-.87-1.93-.58-3.61-1.38-5.06-2.4-1.44-1.02-2.63-2.22-3.55-3.58-.93-1.37-1.54-2.86-1.85-4.48h11.79c.73,1.96,2.39,2.95,4.97,2.95,2.2,0,3.88-.62,5.06-1.85,1.17-1.23,1.76-2.95,1.76-5.14v-2.83c-.77.73-1.51,1.34-2.23,1.82-.71.48-1.44.88-2.17,1.18-.73.31-1.5.53-2.31.66s-1.7.2-2.66.2c-2.12,0-4.07-.37-5.84-1.1-1.77-.73-3.3-1.75-4.59-3.06-1.29-1.31-2.29-2.88-3.01-4.71-.71-1.83-1.07-3.86-1.07-6.1s.39-4.38,1.16-6.33c.77-1.94,1.82-3.64,3.15-5.09,1.33-1.45,2.91-2.58,4.74-3.41,1.83-.83,3.82-1.24,5.98-1.24,3.51,0,6.45,1.31,8.84,3.93v-3.12h10.46Zm-23.47,14.68c0,.96.17,1.86.52,2.69.35.83.82,1.55,1.42,2.17.6.62,1.31,1.1,2.14,1.45.83.35,1.72.52,2.69.52s1.8-.17,2.63-.52c.83-.35,1.54-.83,2.14-1.45.6-.62,1.08-1.34,1.44-2.17.37-.83.55-1.7.55-2.63s-.18-1.85-.55-2.66c-.37-.81-.86-1.52-1.47-2.14-.62-.62-1.34-1.1-2.17-1.44-.83-.35-1.69-.52-2.57-.52s-1.79.18-2.6.55c-.81.37-1.52.85-2.14,1.44-.62.6-1.11,1.3-1.47,2.11-.37.81-.55,1.68-.55,2.6Z"/>
    <path class="cls-1" d="m410.08,527.38c0,4.3,2.02,6.44,6.06,6.44,2.17,0,3.8-.88,4.9-2.64h9.64c-1.95,6.46-6.81,9.69-14.59,9.69-2.39,0-4.57-.36-6.55-1.07-1.98-.72-3.68-1.74-5.09-3.06-1.41-1.32-2.51-2.9-3.28-4.74-.77-1.84-1.16-3.89-1.16-6.17s.37-4.47,1.1-6.36c.73-1.89,1.78-3.5,3.14-4.82,1.36-1.32,3-2.34,4.93-3.06,1.93-.72,4.1-1.07,6.53-1.07s4.53.36,6.44,1.07c1.91.72,3.52,1.75,4.85,3.11,1.32,1.36,2.33,3.02,3.03,4.98.7,1.96,1.05,4.18,1.05,6.64v1.05h-20.98Zm11.67-5.78c-.33-1.4-1.01-2.51-2.04-3.36-1.03-.84-2.28-1.27-3.74-1.27-1.54,0-2.8.4-3.77,1.21-.97.81-1.59,1.95-1.85,3.41h11.4Z"/>
    <path class="cls-1" d="m239.44,527.38c0,4.3,2.02,6.44,6.06,6.44,2.17,0,3.8-.88,4.9-2.64h9.64c-1.95,6.46-6.81,9.69-14.59,9.69-2.39,0-4.57-.36-6.55-1.07-1.98-.72-3.68-1.74-5.09-3.06-1.41-1.32-2.51-2.9-3.28-4.74-.77-1.84-1.16-3.89-1.16-6.17s.37-4.47,1.1-6.36c.73-1.89,1.78-3.5,3.14-4.82,1.36-1.32,3-2.34,4.93-3.06,1.93-.72,4.1-1.07,6.53-1.07s4.53.36,6.44,1.07c1.91.72,3.52,1.75,4.85,3.11,1.32,1.36,2.33,3.02,3.03,4.98.7,1.96,1.05,4.18,1.05,6.64v1.05h-20.98Zm11.67-5.78c-.33-1.4-1.01-2.51-2.04-3.36-1.03-.84-2.28-1.27-3.74-1.27-1.54,0-2.8.4-3.77,1.21-.97.81-1.59,1.95-1.85,3.41h11.4Z"/>
  </g>
</svg>